<svg xmlns="http://www.w3.org/2000/svg" xmlns:xlink="http://www.w3.org/1999/xlink" width="50" zoomAndPan="magnify" viewBox="0 0 37.5 37.499999" height="50" preserveAspectRatio="xMidYMid meet" version="1.0"><defs><clipPath id="de732091bc"><path d="M 0 0 L 37.007812 0 L 37.007812 37.007812 L 0 37.007812 Z M 0 0 " clip-rule="nonzero"/></clipPath></defs><g clip-path="url(#de732091bc)"><path fill="#dac2fe" d="M 23.925781 0 L 25.082031 0 L 25.082031 3.6875 L 25.660156 3.757812 L 26.453125 4.191406 L 27.105469 4.84375 L 27.464844 5.492188 L 27.898438 4.769531 L 28.261719 4.335938 L 29.054688 3.832031 L 29.777344 3.613281 L 29.851562 0 L 31.007812 0 L 31.007812 3.6875 L 31.730469 3.902344 L 32.453125 4.410156 L 32.886719 4.914062 L 33.25 5.636719 L 33.394531 6.144531 L 33.394531 7.878906 L 32.957031 9.757812 L 31.800781 14.382812 L 31.730469 14.527344 L 32.089844 14.671875 L 32.453125 15.035156 L 32.742188 15.539062 L 32.8125 15.828125 L 32.8125 16.40625 L 32.523438 17.128906 L 32.019531 17.636719 L 31.875 17.636719 L 32.597656 19.804688 L 34.1875 24.9375 L 35.921875 30.429688 L 36.933594 33.683594 L 37.007812 34.117188 L 37.007812 34.695312 L 36.789062 35.5625 L 36.285156 36.355469 L 35.777344 36.789062 L 35.054688 37.007812 L 34.332031 36.933594 L 33.753906 36.644531 L 33.25 36.210938 L 32.742188 36.210938 L 32.164062 36.71875 L 31.730469 36.933594 L 30.933594 37.007812 L 30.140625 36.71875 L 29.5625 36.210938 L 29.054688 36.210938 L 28.332031 36.789062 L 27.683594 37.007812 L 26.886719 36.933594 L 26.308594 36.574219 L 25.875 36.210938 L 25.371094 36.210938 L 24.648438 36.789062 L 23.925781 37.007812 L 23.203125 36.933594 L 22.625 36.644531 L 22.117188 36.210938 L 21.609375 36.210938 L 21.03125 36.71875 L 20.597656 36.933594 L 19.804688 37.007812 L 19.152344 36.789062 L 18.503906 36.210938 L 17.996094 35.199219 L 17.925781 34.839844 L 17.925781 33.972656 L 18.359375 32.453125 L 20.09375 26.960938 L 21.539062 22.335938 L 22.914062 17.925781 L 22.839844 17.5625 L 22.480469 17.273438 L 22.191406 16.769531 L 22.117188 16.480469 L 22.117188 15.757812 L 22.335938 15.179688 L 22.695312 14.746094 L 23.058594 14.527344 L 22.984375 13.878906 L 21.683594 8.671875 L 21.539062 7.804688 L 21.539062 6.070312 L 21.828125 5.203125 L 22.335938 4.554688 L 22.914062 4.046875 L 23.78125 3.6875 L 23.925781 3.6875 Z M 24.140625 4.769531 L 23.492188 5.058594 L 23.128906 5.347656 L 22.769531 5.925781 L 22.695312 6.144531 L 22.695312 7.734375 L 23.058594 9.394531 L 24.285156 14.3125 L 30.574219 14.3125 L 30.789062 13.660156 L 32.164062 8.167969 L 32.234375 7.804688 L 32.234375 6.214844 L 31.875 5.492188 L 31.296875 4.988281 L 30.789062 4.769531 L 29.921875 4.769531 L 29.273438 5.058594 L 28.839844 5.421875 L 28.332031 6.433594 L 27.898438 7.515625 L 27.683594 7.660156 L 27.25 7.660156 L 26.960938 7.371094 L 26.238281 5.636719 L 25.875 5.203125 L 25.226562 4.84375 L 25.007812 4.769531 Z M 23.851562 15.46875 L 23.492188 15.613281 L 23.273438 15.902344 L 23.273438 16.335938 L 23.5625 16.695312 L 31.296875 16.695312 L 31.65625 16.335938 L 31.65625 15.902344 L 31.296875 15.539062 L 31.078125 15.46875 Z M 24.214844 17.851562 L 23.996094 18.359375 L 22.550781 22.914062 L 20.960938 28.042969 L 19.226562 33.539062 L 19.082031 34.042969 L 19.082031 34.765625 L 19.371094 35.417969 L 19.875 35.851562 L 20.382812 35.777344 L 20.960938 35.273438 L 21.539062 34.984375 L 21.753906 34.117188 L 24.9375 18.214844 L 24.9375 17.851562 Z M 26.164062 17.851562 L 26.019531 18.285156 L 22.695312 34.910156 L 22.695312 35.199219 L 23.273438 35.632812 L 23.636719 35.851562 L 24.070312 35.777344 L 24.648438 35.273438 L 25.152344 35.054688 L 26.019531 35.054688 L 26.671875 35.34375 L 26.886719 35.488281 L 26.886719 17.925781 L 26.816406 17.851562 Z M 28.042969 17.851562 L 28.042969 35.488281 L 28.621094 35.128906 L 28.910156 35.054688 L 29.707031 35.054688 L 30.285156 35.273438 L 30.863281 35.777344 L 31.296875 35.851562 L 31.65625 35.632812 L 32.089844 35.273438 L 32.234375 35.199219 L 32.089844 34.261719 L 29.417969 20.886719 L 28.839844 18.070312 L 28.765625 17.851562 Z M 29.996094 17.851562 L 30.066406 18.648438 L 33.320312 34.910156 L 33.683594 35.128906 L 34.332031 35.5625 L 34.550781 35.777344 L 34.984375 35.851562 L 35.34375 35.632812 L 35.707031 35.128906 L 35.851562 34.621094 L 35.777344 33.898438 L 34.1875 28.765625 L 32.453125 23.273438 L 30.863281 18.140625 L 30.71875 17.851562 Z M 7.011719 0 L 13.226562 0 L 13.589844 0.21875 L 13.734375 0.507812 L 13.804688 2.601562 L 17.492188 4.191406 L 17.851562 4.480469 L 19.152344 9.613281 L 20.238281 13.949219 L 20.238281 14.601562 L 19.949219 14.890625 L 16.480469 14.890625 L 16.191406 14.671875 L 15.324219 11.855469 L 14.960938 16.984375 L 14.890625 17.5625 L 14.601562 17.851562 L 5.710938 17.851562 L 5.421875 17.5625 L 5.347656 17.203125 L 5.058594 12.867188 L 5.058594 11.78125 L 4.914062 11.78125 L 4.769531 12.503906 L 4.121094 14.601562 L 3.832031 14.890625 L 0.363281 14.890625 L 0.0742188 14.601562 L 0 14.167969 L 2.386719 4.625 L 2.675781 4.265625 L 4.625 3.398438 L 6.503906 2.601562 L 6.578125 0.433594 L 6.867188 0.0742188 Z M 7.734375 1.15625 L 7.734375 2.386719 L 12.578125 2.386719 L 12.578125 1.230469 L 12.503906 1.15625 Z M 8.023438 3.542969 L 8.167969 4.191406 L 9.613281 8.238281 L 10.046875 9.46875 L 10.191406 9.539062 L 10.984375 7.371094 L 12.289062 3.757812 L 12.289062 3.542969 Z M 6.722656 3.757812 L 4.914062 4.554688 L 5.058594 5.277344 L 5.855469 8.09375 L 6 9.613281 L 6.433594 16.117188 L 6.503906 16.695312 L 9.539062 16.695312 L 9.539062 11.277344 L 7.878906 6.578125 L 6.867188 3.757812 Z M 13.445312 3.757812 L 10.695312 11.421875 L 10.695312 16.695312 L 13.804688 16.695312 L 14.167969 11.566406 L 14.382812 8.3125 L 15.394531 4.699219 L 15.394531 4.554688 L 13.589844 3.757812 Z M 3.6875 5.058594 L 3.398438 5.347656 L 1.375 13.445312 L 1.375 13.734375 L 3.179688 13.734375 L 4.265625 10.191406 L 4.769531 8.457031 L 4.625 7.734375 L 3.902344 5.203125 L 3.832031 5.058594 Z M 16.480469 5.058594 L 16.261719 5.636719 L 15.539062 8.167969 L 15.613281 8.746094 L 17.058594 13.589844 L 17.128906 13.734375 L 18.9375 13.734375 L 18.792969 12.9375 L 16.914062 5.421875 L 16.769531 5.132812 Z M 5.710938 19.152344 L 14.601562 19.152344 L 14.890625 19.441406 L 14.890625 36.644531 L 14.601562 36.933594 L 14.457031 37.007812 L 11.78125 37.007812 L 11.421875 36.71875 L 11.277344 36.140625 L 10.191406 29.273438 L 10.117188 29.199219 L 8.960938 36.5 L 8.746094 36.863281 L 8.457031 37.007812 L 5.855469 37.007812 L 5.492188 36.789062 L 5.421875 36.644531 L 5.421875 19.441406 Z M 6.578125 20.308594 L 6.578125 35.851562 L 7.878906 35.851562 L 8.527344 31.875 L 9.613281 25.007812 L 9.683594 24.648438 L 10.335938 24.574219 L 10.625 24.792969 L 11.058594 27.394531 L 12.359375 35.632812 L 12.433594 35.851562 L 13.734375 35.851562 L 13.734375 20.308594 Z M 6.578125 20.308594 " fill-opacity="1" fill-rule="nonzero"/></g></svg>